<?xml version="1.0" encoding="UTF-8" standalone="no"?>
<svg
   xmlns:dc="http://purl.org/dc/elements/1.1/"
   xmlns:cc="http://creativecommons.org/ns#"
   xmlns:rdf="http://www.w3.org/1999/02/22-rdf-syntax-ns#"
   xmlns:svg="http://www.w3.org/2000/svg"
   xmlns="http://www.w3.org/2000/svg"
   xmlns:xlink="http://www.w3.org/1999/xlink"
   xmlns:sodipodi="http://sodipodi.sourceforge.net/DTD/sodipodi-0.dtd"
   xmlns:inkscape="http://www.inkscape.org/namespaces/inkscape"
   inkscape:export-ydpi="96.013023"
   inkscape:export-xdpi="96.013023"
   inkscape:export-filename="/home/epsi/Documents/2020 - Kartu Merdeka/template-photo-merdeka-github.png"
   inkscape:version="0.92.2 5c3e80d, 2017-08-06"
   sodipodi:docname="template-merdeka.svg"
   viewBox="0 0 1125 1400"
   height="1400"
   width="1125"
   xml:space="preserve"
   id="svg2"
   version="1.1"><metadata
     id="metadata8"><rdf:RDF><cc:Work
         rdf:about=""><dc:format>image/svg+xml</dc:format><dc:type
           rdf:resource="http://purl.org/dc/dcmitype/StillImage" /><dc:title /></cc:Work></rdf:RDF></metadata><defs
     id="defs6"><linearGradient
       id="linearGradient3390"
       inkscape:collect="always"><stop
         id="stop3386"
         offset="0"
         style="stop-color:#ffffff;stop-opacity:0" /><stop
         style="stop-color:#ffffff;stop-opacity:0"
         offset="0.4302741"
         id="stop3402" /><stop
         style="stop-color:#ffffff;stop-opacity:0.49803922"
         offset="0.5"
         id="stop3396" /><stop
         id="stop3398"
         offset="0.55672538"
         style="stop-color:#ffffff;stop-opacity:0.81176472" /><stop
         id="stop3388"
         offset="1"
         style="stop-color:#ffffff;stop-opacity:1" /></linearGradient><filter
       id="filter1199"
       style="color-interpolation-filters:sRGB"
       inkscape:label="Cutout Glow"
       inkscape:menu="Shadows and Glows"
       inkscape:menu-tooltip="In and out glow with a possible offset and colorizable flood"><feOffset
         id="feOffset1189"
         dx="3"
         dy="3" /><feGaussianBlur
         id="feGaussianBlur1191"
         result="blur"
         stdDeviation="3" /><feFlood
         id="feFlood1193"
         result="flood"
         flood-opacity="1"
         flood-color="rgb(0,0,0)" /><feComposite
         id="feComposite1195"
         result="composite"
         operator="in"
         in2="SourceGraphic"
         in="flood" /><feBlend
         id="feBlend1197"
         mode="normal"
         in2="composite"
         in="blur" /></filter><filter
       id="filter1327-7"
       inkscape:label="Drop Shadow"
       style="color-interpolation-filters:sRGB"><feFlood
         id="feFlood1317-8"
         result="flood"
         flood-color="rgb(0,0,0)"
         flood-opacity="0.498039" /><feComposite
         id="feComposite1319-4"
         result="composite1"
         operator="in"
         in2="SourceGraphic"
         in="flood" /><feGaussianBlur
         id="feGaussianBlur1321-5"
         result="blur"
         stdDeviation="3"
         in="composite1" /><feOffset
         id="feOffset1323-0"
         result="offset"
         dy="3"
         dx="3" /><feComposite
         id="feComposite1325-3"
         result="composite2"
         operator="over"
         in2="offset"
         in="SourceGraphic" /></filter><filter
       height="1.7"
       y="-0.34999999"
       width="1.1448276"
       x="-0.072413795"
       id="filter1270"
       style="color-interpolation-filters:sRGB"
       inkscape:collect="always"><feGaussianBlur
         id="feGaussianBlur1272"
         stdDeviation="21.875"
         inkscape:collect="always" /></filter><linearGradient
       y2="13.808161"
       x2="1125"
       y1="1413.8081"
       x1="0"
       gradientUnits="userSpaceOnUse"
       id="linearGradient1397"
       xlink:href="#linearGradient3390"
       inkscape:collect="always" /></defs><sodipodi:namedview
     inkscape:document-rotation="0"
     showguides="false"
     inkscape:pagecheckerboard="true"
     fit-margin-bottom="0"
     fit-margin-right="0"
     fit-margin-left="0"
     fit-margin-top="0"
     inkscape:current-layer="layer5"
     inkscape:window-maximized="1"
     inkscape:window-y="40"
     inkscape:window-x="10"
     inkscape:cy="700"
     inkscape:cx="562.5"
     inkscape:zoom="0.51785714"
     showgrid="false"
     id="namedview4"
     inkscape:window-height="983"
     inkscape:window-width="1900"
     inkscape:pageshadow="2"
     inkscape:pageopacity="0"
     guidetolerance="10"
     gridtolerance="10"
     objecttolerance="10"
     borderopacity="1"
     bordercolor="#666666"
     pagecolor="#ffffff"><inkscape:grid
       id="grid1193"
       type="xygrid" /></sodipodi:namedview><g
     sodipodi:insensitive="true"
     transform="translate(0,-13.808223)"
     style="display:inline"
     inkscape:label="background"
     id="layer1"
     inkscape:groupmode="layer"><path
       d="m 0,1413.8082 h 1125 v -1400 H 0 Z"
       style="fill:#e52b2d;fill-opacity:1;fill-rule:nonzero;stroke:none;stroke-width:1.33333337"
       id="path12"
       inkscape:connector-curvature="0" /></g><g
     sodipodi:insensitive="true"
     transform="translate(0,-13.808228)"
     style="display:none"
     inkscape:label="photo-biru-clip"
     id="layer15"
     inkscape:groupmode="layer"><rect
       style="opacity:0.75;fill:#fafafa;fill-opacity:1;stroke:none;stroke-width:1.273;stroke-miterlimit:4;stroke-dasharray:7.638, 7.638;stroke-dashoffset:0;stroke-opacity:1"
       id="rect1561"
       width="1125"
       height="1400"
       x="0"
       y="13.808722" /></g><g
     sodipodi:insensitive="true"
     transform="translate(0,-13.808228)"
     style="display:none"
     inkscape:label="photo-atas-mask"
     id="layer14"
     inkscape:groupmode="layer"><rect
       y="13.808161"
       x="0"
       height="1400"
       width="1125"
       id="rect1395"
       style="opacity:1;fill:url(#linearGradient1397);fill-opacity:1;stroke:none;stroke-width:1.273;stroke-miterlimit:4;stroke-dasharray:7.638, 7.638;stroke-dashoffset:0;stroke-opacity:1" /></g><g
     sodipodi:insensitive="true"
     transform="translate(0,-13.808223)"
     style="display:inline;opacity:0.5"
     inkscape:label="photo-bambu"
     id="layer3"
     inkscape:groupmode="layer" /><g
     transform="translate(0,-13.808223)"
     style="display:inline"
     inkscape:label="bendera-cutout"
     id="layer4"
     inkscape:groupmode="layer"
     sodipodi:insensitive="true" /><g
     sodipodi:insensitive="true"
     transform="translate(0,-13.808223)"
     style="display:inline"
     inkscape:groupmode="layer"
     id="g1058"
     inkscape:label="photo-utama-bendera-clip" /><g
     sodipodi:insensitive="true"
     inkscape:groupmode="layer"
     id="g2822"
     inkscape:label="custom-solid"
     style="display:inline"
     transform="translate(0,-13.808223)"><g
       id="g2820"
       transform="matrix(0.52765158,0,0,0.52765158,179.61269,-6.1470064)"
       style="stroke-width:1.89519"><g
         style="fill:#f5f5f5;stroke-width:1.25"
         id="g2764"
         transform="matrix(5.7303383,0,0,5.7303383,536.12489,-815.80639)"><g
           style="opacity:1;stroke-width:1.8952"
           transform="matrix(0.6595626,0,0,0.6595626,5.5241073e-5,43.583186)"
           id="g2762"><path
             inkscape:connector-curvature="0"
             id="path2758"
             d="M 0,0 V 36.462891 63.375 h 190.17969 v 30.783203 h 0.12304 31.39649 0.0176 157.32226 V 86.275391 0 Z m 0,94.15625 v 39.32617 151.35156 c 0,98.52084 189.75781,171.32227 189.75781,171.32227 0,0 189.2793,-71.43689 189.2793,-171.32031 V 126.15039 H 221.69922 v 62.96289 h 30.95898 0.35547 c 52.40938,0 94.89063,42.48202 94.89063,94.89258 0,10.98837 -1.87025,21.54888 -5.3125,31.36133 -12.94585,36.9905 -48.16661,63.51758 -89.57813,63.51758 -10.98954,0 -21.55204,-1.86948 -31.36328,-5.31055 -36.99052,-12.94583 -63.51758,-48.15683 -63.51758,-89.56836 0,-0.37644 -8.1e-4,-0.76333 0.01,-1.13867 h 32.1543 c -0.02,0.3753 -0.0195,0.76215 -0.0195,1.13867 0,23.22153 12.62004,43.49709 31.37305,54.34766 9.22803,5.33083 19.9295,8.38671 31.36328,8.38671 23.22271,0 43.50804,-12.62122 54.35742,-31.37304 5.33204,-9.22923 8.38868,-19.93824 8.38868,-31.36133 0,-34.65766 -28.08961,-62.74805 -62.7461,-62.74805 h -0.35547 v 0.0234 H 190.303 v -1.14844 -31.01953 -23.91406 c -3.03245,2.6476 -12.10989,10.3355 -19.55859,14.21484 -0.0106,0.0113 -0.0317,0.0195 -0.041,0.0195 -6.00433,3.46126 -13.02516,7.20946 -20.8789,11.10547 -3.75939,1.87907 -7.71358,3.7887 -11.82813,5.70703 -23.46027,10.96815 -42.490595,28.53426 -55.398434,42.81641 -1.611847,1.7805 -3.124653,3.51212 -4.548828,5.17383 v 0.0117 l -0.0059,-0.004 c -7.704083,9.80171 -13.469486,21.94886 -14.201172,35.20117 -0.04989,0.88018 -0.08036,1.75878 -0.08984,2.64844 v 2.25586 31.5 H 37.75 32.310547 v -36.4043 h 0.06836 c 0.742377,-20.42422 7.933099,-39.20688 19.59375,-54.36914 l -0.0059,-0.008 c 11.058433,-16.92261 26.56616,-29.78044 43.65625,-40.67969 10.237663,-6.52815 21.038273,-12.35374 31.789063,-17.93164 8.89188,-4.61938 19.82499,-9.61265 28.41992,-14.9043 7.52591,-4.61937 12.91896,-9.27755 16.89453,-13.25195 0.46562,-0.47629 1.23762,-1.34329 1.63672,-1.78516 9.65089,-10.70683 15.79492,-25.65429 15.79492,-41.76562 0,-0.198425 -3.1e-4,-0.3954 -0.01,-0.59375 z"
             style="fill:#ffffff;fill-opacity:1;fill-rule:nonzero;stroke:none;stroke-width:2.52693"
             transform="matrix(0.26458333,0,0,0.26458333,-5.0829994e-8,176.30885)" /></g></g><g
         id="g2818"
         style="display:inline;fill:#ffffff;fill-opacity:1;stroke-width:2.12739"
         transform="matrix(1.1878017,0,0,-1.1878017,0,1414.136)"><g
           style="fill:#ffffff;fill-opacity:1;stroke-width:2.12739"
           id="g2768"
           transform="translate(567.2319,633.1758)"><path
             d="M 0,0 -11.925,-20.105 -24.034,0 h -6.193 v -32.354 h 7.025 v 18.998 l 9.475,-15.577 h 3.374 l 9.521,15.992 0.046,-19.413 H 6.239 L 6.147,0 Z"
             style="fill:#ffffff;fill-opacity:1;fill-rule:nonzero;stroke:none;stroke-width:2.12739"
             id="path2766"
             inkscape:connector-curvature="0" /></g><g
           style="fill:#ffffff;fill-opacity:1;stroke-width:2.12739"
           id="g2772"
           transform="translate(594.4536,613.4404)"><path
             d="M 0,0 5.13,12.387 10.261,0 Z m 1.479,19.735 -14.42,-32.353 h 7.672 l 2.866,6.932 h 15.021 l 2.866,-6.932 h 7.857 L 8.874,19.735 Z"
             style="fill:#ffffff;fill-opacity:1;fill-rule:nonzero;stroke:none;stroke-width:2.12739"
             id="path2770"
             inkscape:connector-curvature="0" /></g><g
           style="fill:#ffffff;fill-opacity:1;stroke-width:2.12739"
           id="g2776"
           transform="translate(625.2808,627.167)"><path
             d="m 0,0 h 11.37 v -15.391 c 0,-3.558 -1.571,-5.361 -4.576,-5.361 -2.311,0 -4.252,1.202 -6.008,3.559 l -4.16,-4.992 c 2.357,-3.049 6.193,-4.713 10.538,-4.713 7.626,0 11.647,3.927 11.647,11.923 V 6.009 H 0 Z"
             style="fill:#ffffff;fill-opacity:1;fill-rule:nonzero;stroke:none;stroke-width:2.12739"
             id="path2774"
             inkscape:connector-curvature="0" /></g><g
           style="fill:#ffffff;fill-opacity:1;stroke-width:2.12739"
           id="g2780"
           transform="translate(677.7388,615.335)"><path
             d="m 0,0 c 0,-6.147 -2.634,-8.688 -7.21,-8.688 -4.53,0 -7.211,2.541 -7.211,8.688 v 17.841 h -7.487 V -0.277 c 0,-9.521 5.454,-14.789 14.652,-14.789 9.197,0 14.651,5.268 14.651,14.789 V 17.841 H 0 Z"
             style="fill:#ffffff;fill-opacity:1;fill-rule:nonzero;stroke:none;stroke-width:2.12739"
             id="path2778"
             inkscape:connector-curvature="0" /></g><g
           style="fill:#ffffff;fill-opacity:1;stroke-width:2.12739"
           id="g2784"
           transform="translate(497.7759,660.7627)"><path
             d="m 0,0 -16.083,19.644 h -6.194 V -12.71 h 7.395 V 6.934 L 1.249,-12.71 H 7.396 V 19.644 H 0 Z"
             style="fill:#ffffff;fill-opacity:1;fill-rule:nonzero;stroke:none;stroke-width:2.12739"
             id="path2782"
             inkscape:connector-curvature="0" /></g><g
           style="fill:#ffffff;fill-opacity:1;stroke-width:2.12739"
           id="g2788"
           transform="translate(531.793,654.2002)"><path
             d="M 0,0 H -6.84 V 20.059 H 0 c 6.425,0 10.63,-3.836 10.63,-10.029 C 10.63,3.837 6.425,0 0,0 m 18.21,10.03 c 0,9.797 -7.256,16.176 -17.84,16.176 H -14.328 V -6.147 H 0.37 c 10.584,0 17.84,6.378 17.84,16.177"
             style="fill:#ffffff;fill-opacity:1;fill-rule:nonzero;stroke:none;stroke-width:2.12739"
             id="path2786"
             inkscape:connector-curvature="0" /></g><g
           style="fill:#ffffff;fill-opacity:1;stroke-width:2.12739"
           id="g2792"
           transform="translate(575.9312,653.877)"><path
             d="m 0,0 c -5.777,0 -10.121,4.205 -10.121,10.354 0,6.146 4.344,10.352 10.121,10.352 5.778,0 10.123,-4.206 10.123,-10.352 C 10.123,4.205 5.778,0 0,0 m 17.702,10.354 c 0,9.658 -7.534,16.729 -17.702,16.729 -10.214,0 -17.701,-7.116 -17.701,-16.729 0,-9.615 7.487,-16.732 17.701,-16.732 10.168,0 17.702,7.07 17.702,16.732"
             style="fill:#ffffff;fill-opacity:1;fill-rule:nonzero;stroke:none;stroke-width:2.12739"
             id="path2790"
             inkscape:connector-curvature="0" /></g><g
           style="fill:#ffffff;fill-opacity:1;stroke-width:2.12739"
           id="g2796"
           transform="translate(611.2881,667.6963)"><path
             d="m 0,0 16.13,-19.644 h 6.147 V 12.71 H 14.882 V -6.934 L -1.202,12.71 H -7.395 V -19.644 H 0 Z"
             style="fill:#ffffff;fill-opacity:1;fill-rule:nonzero;stroke:none;stroke-width:2.12739"
             id="path2794"
             inkscape:connector-curvature="0" /></g><g
           style="fill:#ffffff;fill-opacity:1;stroke-width:2.12739"
           id="g2800"
           transform="translate(670.9102,654.0615)"><path
             d="m 0,0 h -17.609 v 7.487 h 15.021 v 5.824 h -15.021 v 7.025 h 17.008 v 6.009 h -24.45 V -6.009 H 0 Z"
             style="fill:#ffffff;fill-opacity:1;fill-rule:nonzero;stroke:none;stroke-width:2.12739"
             id="path2798"
             inkscape:connector-curvature="0" /></g><g
           style="fill:#ffffff;fill-opacity:1;stroke-width:2.12739"
           id="g2804"
           transform="translate(687.041,671.2549)"><path
             d="m 0,0 c 0,2.033 1.709,3.697 6.146,3.697 2.866,0 5.963,-0.832 8.967,-2.542 l 2.311,5.686 C 14.42,8.735 10.26,9.705 6.193,9.705 -3.005,9.705 -7.442,5.13 -7.442,-0.369 c 0,-12.018 18.812,-7.858 18.812,-13.912 0,-1.989 -1.803,-3.467 -6.24,-3.467 -3.883,0 -7.949,1.387 -10.677,3.374 l -2.542,-5.639 c 2.866,-2.218 8.043,-3.743 13.172,-3.743 9.245,0 13.727,4.622 13.727,10.029 C 18.81,-1.849 0,-5.963 0,0"
             style="fill:#ffffff;fill-opacity:1;fill-rule:nonzero;stroke:none;stroke-width:2.12739"
             id="path2802"
             inkscape:connector-curvature="0" /></g><g
           style="fill:#ffffff;fill-opacity:1;stroke-width:2.12739"
           id="g2808"
           transform="translate(747.1196,660.6709)"><path
             d="M 0,0 5.131,12.387 10.261,0 Z M 8.874,19.735 H 1.479 l -14.42,-32.353 h 7.672 l 2.866,6.932 h 15.021 l 2.866,-6.932 h 7.857 z"
             style="fill:#ffffff;fill-opacity:1;fill-rule:nonzero;stroke:none;stroke-width:2.12739"
             id="path2806"
             inkscape:connector-curvature="0" /></g><g
           style="fill:#ffffff;fill-opacity:1;stroke-width:2.12739"
           id="g2812"
           transform="translate(451.6782,680.4062)"><path
             d="m 0,0 v -6.009 h 4.04 v -26.345 h 7.487 V -6.009 0 H 4.04 Z"
             style="fill:#ffffff;fill-opacity:1;fill-rule:nonzero;stroke:none;stroke-width:2.12739"
             id="path2810"
             inkscape:connector-curvature="0" /></g><g
           style="fill:#ffffff;fill-opacity:1;stroke-width:2.12739"
           id="g2816"
           transform="translate(718.6499,680.4062)"><path
             d="M 0,0 H -4.04 V -6.009 H 0 V -32.354 H 7.487 V 0 H 7.442 Z"
             style="fill:#ffffff;fill-opacity:1;fill-rule:nonzero;stroke:none;stroke-width:2.12739"
             id="path2814"
             inkscape:connector-curvature="0" /></g></g></g></g><g
     sodipodi:insensitive="true"
     style="display:inline"
     transform="matrix(1.3333333,0,0,-1.3333333,0,1400.368)"
     inkscape:label="dekorasi-bawah"
     inkscape:groupmode="layer"
     id="g2836"><path
       inkscape:connector-curvature="0"
       id="path2838"
       transform="matrix(0.75000002,0,0,-0.75000002,0,1060.6322)"
       d="m 522.21094,1288.7773 -22.20899,22.209 v -6.0254 h -13.47265 -46.66602 -1.85547 -46.66797 v 46.7871 1.1504 60.8965 h 9.03125 v -35.8086 -1.1504 -62.8437 h 0.008 16.05078 46.66406 1.85742 35.05078 v 16.0586 h -35.05078 -1.85547 -46.66797 v 46.7851 1.1504 35.8086 h 9.03125 v -10.7207 -1.1504 -62.8437 h 0.008 16.05078 46.66601 1.85547 9.96289 v -4.6895 l 45.61328,-45.6133 z m 46.45312,0 -68.66015,68.6622 v 23.1347 l 91.79492,-91.7969 z m 46.18555,0 -114.84766,114.8457 v 1.6915 h -8.30859 v 8.4824 h 8.30859 v -0.027 h 13.07422 l 111.92578,-111.9257 v 23.0488 l -88.87695,88.8769 h 23.05078 l 65.82617,-65.8281 v 23.0488 l -42.77734,42.7852 h 20.55859 l 22.21875,-22.2188 v 22.2188 h 125.00196 125.00195 124.99219 v 0.033 H 1000 V 1288.7773 Z M 0,1288.7969 v 13.6914 c 3.5895366,-5.433 8.2454943,-10.1015 13.679688,-13.6914 z m 66.591797,0 c 2.342662,1.5472 4.542083,3.295 6.574219,5.2168 4.742086,4.4852 8.572311,9.9246 11.18164,16.0117 0.372788,0.8696 0.720925,1.7514 1.042969,2.6465 1.610589,4.4764 2.574843,9.2597 2.78125,14.2402 4.842667,0.1995 9.498873,1.1138 13.865235,2.6484 0.58031,0.2029 1.1547,0.4164 1.72461,0.6407 h 0.002 c 0.56934,0.2242 1.13293,0.46 1.69141,0.705 h 0.002 c 0.55848,0.2452 1.11108,0.5002 1.6582,0.7657 h 0.002 c 6.02361,2.9238 11.3445,7.0734 15.64258,12.1191 0.78142,0.9175 1.53039,1.865 2.24218,2.8399 v 40.3925 c -0.611,0.09 -1.21918,0.1965 -1.81836,0.3204 -8.3972,1.7374 -15.58232,6.7805 -20.125,13.7089 -0.3245,0.4949 -0.63461,1 -0.93164,1.5137 -1.47525,2.5478 -2.599439,5.3215 -3.318356,8.252 -0.239806,0.9769 -0.433852,1.9711 -0.582032,2.9804 H 57.847656 c -0.717432,-0.5232 -1.418943,-1.0657 -2.105468,-1.6269 -10.297891,-8.4168 -17.032294,-21.0197 -17.619141,-35.211 C 22.180373,1376.3017 8.2528459,1367.8888 0,1355.3848 v 58.4238 h 375.00586 v -125.002 h -125.00195 -7.82618 v 124.9942 H 125.00195 v -0.01 h 7.82617 v -124.9941 h -7.82617 z m 81.835933,0 v 124.9942 h 15.65235 v -124.9942 z m 31.24415,0 v 124.9942 h 15.71484 v -124.9942 z m 31.30859,0 v 124.9942 h 15.59765 v -124.9942 z m 539.02344,7.7989 h 125.00195 v 15.5898 H 750.00391 Z m -709.865238,0.5527 v 0 c -8.821209,0 -16.809178,3.5931 -22.570313,9.4004 h -0.002 c -1.919564,1.9352 -3.593566,4.1165 -4.966797,6.4922 -1.351718,2.3376 -2.413816,4.863 -3.1386715,7.5273 -0.7245361,2.6637 -1.1113281,5.4657 -1.1113281,8.3574 0,1.0973 0.055553,2.1812 0.1640625,3.25 0.054221,0.5337 0.1208852,1.0643 0.2011719,1.5899 0.3215367,2.1049 0.8495042,4.142 1.5625002,6.0898 0.178249,0.487 0.369261,0.9679 0.570312,1.4434 0.402059,0.951 0.848605,1.8801 1.337891,2.7812 0.978469,1.8016 2.126642,3.4984 3.421875,5.0684 0.647795,0.7851 1.333686,1.5385 2.052734,2.2578 1.438094,1.4386 3.011959,2.7399 4.703125,3.8828 0.422792,0.2857 0.852116,0.5627 1.289063,0.8281 4.806708,2.922 10.44974,4.6036 16.486328,4.6036 h 0.06836 c 0.179359,-0.5642 0.358359,-1.1297 0.550781,-1.6797 0.313158,-0.8943 0.651947,-1.7773 1.015626,-2.6465 4.003374,-9.568 11.013069,-17.5617 19.847656,-22.8086 2.409045,-1.4306 4.954885,-2.6581 7.611328,-3.6563 0.88562,-0.3328 1.783801,-0.6407 2.693359,-0.9218 h 0.002 v -0.082 c 0,-2.9422 -0.400362,-5.7887 -1.148437,-8.4921 -2.056896,-7.4344 -6.749013,-13.7733 -13.003906,-17.9532 -0.568178,-0.3796 -1.149008,-0.7426 -1.742188,-1.0859 h -0.002 c -0.584548,-0.3379 -1.180041,-0.658 -1.787109,-0.959 -3.642414,-1.8056 -7.678038,-2.9331 -11.951172,-3.2187 -0.712191,-0.047 -1.429589,-0.072 -2.154297,-0.072 z M 312.5,1304.4082 c 5.5708,0 10.92238,0.9423 15.89453,2.6895 18.74232,6.5602 32.18164,24.3952 32.18164,45.3789 0,0.1925 -10e-4,0.3856 -0.008,0.5781 H 344.2832 c 0.005,-0.1925 0.006,-0.3856 0.006,-0.5781 0,-11.7675 -6.39688,-22.036 -15.89453,-27.5391 -4.67756,-2.6952 -10.09689,-4.25 -15.89453,-4.25 -11.76044,0 -22.04234,6.3956 -27.53711,15.9004 -2.70344,4.6704 -4.25195,10.1041 -4.25195,15.8887 0,17.5581 14.22978,31.789 31.78906,31.789 h 0.18555 v 16.2852 H 312.5 c -26.55449,0 -48.07422,-21.5209 -48.07422,-48.0742 0,-5.5648 0.94932,-10.9225 2.68945,-15.8887 6.56142,-18.7412 24.40817,-32.1797 45.38477,-32.1797 z m 343.01758,15.1641 h 63.96875 v 63.3925 h -63.96875 z m 281.98437,0.1289 c 17.43575,0 31.57032,14.1337 31.57032,31.5683 0,17.4357 -14.13457,31.5684 -31.57032,31.5684 -17.43453,0 -31.56836,-14.1327 -31.56836,-31.5684 0,-17.4346 14.13383,-31.5683 31.56836,-31.5683 z m -187.49804,8.1426 h 125.00195 v 15.5996 H 750.00391 Z m -78.57813,7.6386 v 31.5742 h 32.16016 v -31.5742 z m -585.283202,7.6758 c -11.025397,0 -20.751954,5.6148 -26.453125,14.1484 -0.380079,0.5689 -0.740487,1.1502 -1.083984,1.7442 -2.702251,4.6776 -4.25,10.1041 -4.25,15.8887 0,3.0975 0.441585,6.0911 1.267578,8.9218 0.137667,0.4718 0.286644,0.94 0.445312,1.4024 3.96674,11.5606 14.41023,20.111 27,21.3203 0.350402,-1.3626 0.750071,-2.7039 1.210938,-4.0176 5.275029,-15.0697 17.855623,-26.706 33.488283,-30.6875 -1.00369,-10.4681 -7.06546,-19.4648 -15.73047,-24.4785 -4.677566,-2.6952 -10.095684,-4.2422 -15.894532,-4.2422 z m 355.375002,11.9824 v 46.7852 1.1504 10.7207 h 9.0293 v -49.627 h 0.008 16.04883 33.39843 v -9.0293 h -9.96289 -1.85547 z m 308.48633,4.0098 H 875.00586 V 1374.75 H 750.00391 Z m -283.40039,21.0762 0.002,33.5703 h 9.0293 v -24.5391 h 0.008 16.04883 8.31054 v -9.0312 z m 283.40039,10.1211 h 125.00195 v 15.5918 H 750.00391 Z"
       style="display:inline;opacity:0.75;fill:#ffffff;fill-opacity:1;fill-rule:nonzero;stroke:none;stroke-width:1.33333445" /></g><g
     sodipodi:insensitive="true"
     transform="translate(0,-13.808223)"
     style="display:inline"
     inkscape:label="dekorasi-bangga"
     id="layer7"
     inkscape:groupmode="layer"><path
       inkscape:connector-curvature="0"
       id="path1306"
       style="display:inline;opacity:0.75;fill:#ffffff;fill-opacity:1;fill-rule:nonzero;stroke:none;stroke-width:1.12252188"
       d="M 841.89137,105.76475 H 947.1278 V 0.30199999 H 841.89137 Z"
       transform="matrix(1.1878017,0,0,-1.1878017,0,1414.136)" /><g
       id="g2909"><g
         transform="matrix(1.1878017,0,0,-1.1878017,1067.3518,1348.1412)"
         id="g1360"
         style="display:inline;fill:#e52b2d;fill-opacity:1;stroke-width:1.12252188"><path
           inkscape:connector-curvature="0"
           id="path1358"
           style="fill:#e52b2d;fill-opacity:1;fill-rule:nonzero;stroke:none;stroke-width:1.12252188"
           d="M 0,0 C 0.047,0.635 0.01,1.167 -0.206,1.659 -0.502,2.333 -1.036,2.745 -1.77,2.829 -2.227,2.882 -2.605,2.647 -2.855,2.28 -3.067,1.968 -2.751,1.746 -2.601,1.537 -1.775,0.391 -1.934,-1.688 -3,-2.628 c -0.938,-0.827 -1.994,-1.509 -3.113,-2.058 -1.389,-0.681 -2.853,-1.147 -4.384,-1.46 -2.713,-0.555 -5.426,-1.051 -8.208,-1.023 -0.424,0.005 -0.551,-0.116 -0.323,-0.532 0.839,-1.536 1.736,-3.039 2.705,-4.493 1.944,-2.916 4.056,-5.709 6.575,-8.163 1.243,-1.21 2.562,-2.334 4.17,-3.045 1.17,-0.518 2.363,-0.557 3.524,0.005 1.546,0.748 2.463,2.117 3.315,3.523 0.911,1.504 1.588,3.128 2.281,4.738 0.54,1.252 0.964,2.554 1.456,3.828 0.169,0.442 0.02,0.586 -0.417,0.577 -0.411,-0.01 -0.819,-0.083 -1.222,-0.096 -1.926,-0.063 -3.771,-0.503 -5.588,-1.096 -0.794,-0.26 -1.461,-0.61 -1.954,-1.399 -0.853,-1.366 -2.102,-2.395 -3.399,-3.344 -0.244,-0.179 -0.496,-0.336 -0.788,-0.43 -0.743,-0.236 -1.055,-0.05 -1.143,0.713 -0.379,-0.192 -0.773,-0.283 -1.156,-0.055 -0.428,0.252 -0.311,0.671 -0.22,1.107 -0.508,-0.266 -0.872,-0.12 -1.174,0.245 -0.346,0.42 -0.118,0.811 0.078,1.22 -0.502,-0.031 -0.972,0.085 -1.113,0.6 -0.137,0.499 0.266,0.799 0.613,1.079 0.543,0.44 1.18,0.711 1.884,1.009 -0.517,0.307 -1.016,0.526 -1.383,0.951 -0.545,0.633 -0.642,1.492 -0.175,2.176 0.187,0.276 0.472,0.431 0.799,0.431 0.301,-0.001 0.426,-0.246 0.52,-0.501 0.199,-0.539 0.574,-0.931 1.078,-1.185 1.058,-0.531 2.167,-0.557 3.305,-0.302 1.265,0.284 2.283,1.033 3.34,1.718 0.629,0.408 1.138,1.024 1.946,1.134 1.862,0.257 3.585,0.924 5.203,1.855 0.847,0.487 0.907,1.091 0.251,1.663 0.754,0.627 0.666,1.202 -0.261,1.723 0.273,0.315 0.393,0.64 0.212,1.064 C 4.006,0.082 3.535,0.006 3.07,0.065 3.109,0.135 3.148,0.185 3.167,0.24 3.276,0.583 3.344,0.923 3.081,1.234 2.795,1.572 2.457,1.556 2.08,1.408 1.315,1.108 0.688,0.606 0,0 m -5.346,-0.53 c 0,1.264 -0.049,2.433 0.012,3.596 0.087,1.664 0.189,3.333 0.408,4.984 0.185,1.391 0.4,2.783 0.711,4.161 0.476,2.102 1.055,4.161 1.959,6.121 0.712,1.544 1.587,2.982 2.816,4.176 1.813,1.761 3.954,2.261 6.312,1.414 1.55,-0.556 2.478,-1.822 3.04,-3.34 0.559,-1.51 0.816,-3.071 0.894,-4.684 0.043,-0.873 0.136,-1.751 0.064,-2.614 C 10.745,11.772 10.697,10.257 10.494,8.746 10.292,7.229 10.055,5.718 9.797,4.211 9.533,2.661 9.183,1.126 8.836,-0.409 8.233,-3.083 7.551,-5.737 6.798,-8.374 6.194,-10.486 5.582,-12.6 4.808,-14.655 c -0.997,-2.651 -2.126,-5.252 -3.921,-7.478 -0.9,-1.116 -1.9,-2.172 -3.399,-2.528 -0.863,-0.206 -1.704,-0.058 -2.509,0.199 -1.774,0.567 -3.257,1.634 -4.635,2.863 -2.525,2.253 -4.574,4.905 -6.507,7.663 -1.383,1.975 -2.629,4.034 -3.819,6.125 -1.54,2.71 -2.965,5.48 -4.273,8.313 -0.942,2.038 -1.656,4.148 -2.11,6.334 -0.382,1.835 -0.625,3.702 -0.562,5.592 0.06,1.786 0.26,3.564 1.004,5.196 0.589,1.292 1.438,2.445 2.954,2.789 0.923,0.21 1.857,0.137 2.774,-0.111 1.598,-0.433 2.92,-1.323 4.139,-2.417 2.33,-2.09 4.03,-4.654 5.582,-7.33 1.118,-1.926 2.1,-3.922 2.978,-5.97 0.698,-1.63 1.395,-3.261 1.94,-4.95 0.013,-0.039 0.076,-0.063 0.21,-0.165" /></g><g
         transform="matrix(1.1878017,0,0,-1.1878017,1020.7678,1324.7899)"
         id="g1436"
         style="display:inline;fill:#e52b2d;fill-opacity:1;stroke-width:1.12252188"><path
           inkscape:connector-curvature="0"
           id="path1434"
           style="fill:#e52b2d;fill-opacity:1;fill-rule:nonzero;stroke:none;stroke-width:1.12252188"
           d="m 0,0 c 1.76,-0.084 3.315,-0.104 4.858,-0.252 0.935,-0.091 1.873,-0.061 2.806,-0.185 0.593,-0.079 1.069,-0.525 1.073,-1.128 0.005,-0.619 -0.454,-1.144 -1.055,-1.139 -1.705,0.015 -3.406,0.105 -5.1,0.305 -0.549,0.064 -1.114,-0.012 -1.665,0.043 -0.902,0.088 -1.798,-0.045 -2.696,-0.03 -0.684,0.013 -1.076,0.388 -1.126,0.99 -0.075,0.922 0.426,1.205 1.035,1.25 C -1.179,-0.096 -0.491,0.085 0,0" /></g><g
         transform="matrix(1.1878017,0,0,-1.1878017,1025.0602,1312.5337)"
         id="g1444"
         style="display:inline;fill:#e52b2d;fill-opacity:1;stroke-width:1.12252188"><path
           inkscape:connector-curvature="0"
           id="path1442"
           style="fill:#e52b2d;fill-opacity:1;fill-rule:nonzero;stroke:none;stroke-width:1.12252188"
           d="M 0,0 C 0.256,0.031 0.439,-0.076 0.655,-0.185 3.128,-1.429 5.091,-3.304 6.991,-5.258 7.364,-5.641 7.369,-6.091 7.038,-6.426 6.696,-6.771 6.207,-6.767 5.817,-6.409 4.751,-5.433 3.766,-4.371 2.632,-3.464 1.687,-2.708 0.673,-2.068 -0.391,-1.5 -0.841,-1.26 -0.885,-0.841 -0.784,-0.438 -0.693,-0.077 -0.377,0.082 0,0" /></g><g
         transform="matrix(1.1878017,0,0,-1.1878017,1042.0119,1303.2587)"
         id="g1448"
         style="display:inline;fill:#e52b2d;fill-opacity:1;stroke-width:1.12252188"><path
           inkscape:connector-curvature="0"
           id="path1446"
           style="fill:#e52b2d;fill-opacity:1;fill-rule:nonzero;stroke:none;stroke-width:1.12252188"
           d="m 0,0 c 0.531,0.006 0.753,-0.351 0.859,-0.783 0.34,-1.384 0.649,-2.776 0.985,-4.16 0.321,-1.325 0.523,-2.67 0.768,-4.008 0.065,-0.358 0.037,-0.728 0.18,-1.082 0.124,-0.309 -0.254,-0.825 -0.584,-0.891 -0.414,-0.081 -0.828,0.224 -0.896,0.704 -0.209,1.461 -0.45,2.916 -0.768,4.357 -0.226,1.022 -0.471,2.04 -0.726,3.054 -0.169,0.675 -0.284,1.362 -0.51,2.023 C -0.801,-0.468 -0.37,-0.009 0,0" /></g><g
         transform="matrix(1.1878017,0,0,-1.1878017,1083.9086,1308.4635)"
         id="g1452"
         style="display:inline;fill:#e52b2d;fill-opacity:1;stroke-width:1.12252188"><path
           inkscape:connector-curvature="0"
           id="path1450"
           style="fill:#e52b2d;fill-opacity:1;fill-rule:nonzero;stroke:none;stroke-width:1.12252188"
           d="m 0,0 c 0.034,-0.312 -0.245,-0.593 -0.481,-0.855 -0.99,-1.101 -1.561,-2.452 -2.276,-3.717 -0.206,-0.365 -0.402,-0.738 -0.623,-1.093 -0.343,-0.554 -0.826,-0.706 -1.296,-0.43 -0.55,0.324 -0.636,0.684 -0.333,1.325 0.822,1.741 1.674,3.464 2.887,4.974 0.307,0.383 0.567,0.872 1.221,0.804 C -0.362,0.951 -0.006,0.643 0,0" /></g><g
         transform="matrix(1.1878017,0,0,-1.1878017,1060.6879,1311.8877)"
         id="g1464"
         style="display:inline;fill:#e52b2d;fill-opacity:1;stroke-width:1.12252188"><path
           inkscape:connector-curvature="0"
           id="path1462"
           style="fill:#e52b2d;fill-opacity:1;fill-rule:nonzero;stroke:none;stroke-width:1.12252188"
           d="m 0,0 c 0.005,-1.274 -0.003,-2.549 0.022,-3.823 0.009,-0.431 -0.218,-0.569 -0.574,-0.588 -0.409,-0.023 -0.617,0.199 -0.617,0.604 0.002,1.293 -0.007,2.586 0.016,3.878 0.028,1.642 0.058,3.283 0.137,4.923 0.056,1.144 0.14,2.29 0.349,3.421 0.05,0.268 0.13,0.575 0.478,0.509 C 0.09,8.87 0.158,8.601 0.124,8.325 0.041,7.673 -0.006,7.018 0,6.358 -0.125,6.297 -0.093,6.179 -0.094,6.077 -0.095,4.146 -0.095,2.213 -0.094,0.281 -0.094,0.181 -0.125,0.062 0,0" /></g><g
         transform="matrix(1.1878017,0,0,-1.1878017,1094.2329,1317.7223)"
         id="g1468"
         style="display:inline;fill:#e52b2d;fill-opacity:1;stroke-width:1.12252188"><path
           inkscape:connector-curvature="0"
           id="path1466"
           style="fill:#e52b2d;fill-opacity:1;fill-rule:nonzero;stroke:none;stroke-width:1.12252188"
           d="m 0,0 c -0.038,-0.209 -0.213,-0.394 -0.454,-0.466 -1.856,-0.557 -3.416,-1.655 -5,-2.713 -0.101,-0.068 -0.2,-0.148 -0.313,-0.19 -0.312,-0.118 -0.605,-0.059 -0.788,0.224 -0.203,0.315 -0.061,0.597 0.213,0.784 0.726,0.494 1.442,1.011 2.209,1.434 1.066,0.586 2.145,1.162 3.33,1.489 C -0.371,0.683 0.005,0.448 0,0" /></g><g
         transform="matrix(1.1878017,0,0,-1.1878017,1022.7205,1334.1497)"
         id="g1472"
         style="display:inline;fill:#e52b2d;fill-opacity:1;stroke-width:1.12252188"><path
           inkscape:connector-curvature="0"
           id="path1470"
           style="fill:#e52b2d;fill-opacity:1;fill-rule:nonzero;stroke:none;stroke-width:1.12252188"
           d="m 0,0 c 1.571,0.115 3.144,0.119 4.718,0.108 0.775,-0.004 1.078,-0.183 1.039,-0.626 -0.04,-0.46 -0.578,-0.797 -1.2,-0.65 -0.428,0.102 -0.846,0.085 -1.267,0.086 -1.369,0.001 -2.73,0.125 -4.092,0.229 -0.254,0.02 -0.626,0.016 -0.61,0.431 C -1.396,0 -1.073,0.011 -0.752,0.002 -0.501,-0.006 -0.25,0 0,0" /></g><g
         transform="matrix(1.1878017,0,0,-1.1878017,1060.6879,1311.8877)"
         id="g1476"
         style="display:inline;fill:#e52b2d;fill-opacity:1;stroke-width:1.12252188"><path
           inkscape:connector-curvature="0"
           id="path1474"
           style="fill:#e52b2d;fill-opacity:1;fill-rule:nonzero;stroke:none;stroke-width:1.12252188"
           d="m 0,0 c -0.125,0.062 -0.094,0.181 -0.094,0.281 -0.001,1.932 -0.001,3.865 0,5.796 0.001,0.102 -0.031,0.22 0.094,0.281 z" /></g><g
         transform="matrix(1.1878017,0,0,-1.1878017,1067.3518,1348.1412)"
         id="g1480"
         style="display:inline;fill:#ffffff;fill-opacity:1;stroke-width:1.12252188"><path
           inkscape:connector-curvature="0"
           id="path1478"
           style="fill:#ffffff;fill-opacity:1;fill-rule:nonzero;stroke:none;stroke-width:1.12252188"
           d="M 0,0 C 0.688,0.606 1.315,1.108 2.08,1.408 2.457,1.556 2.795,1.572 3.081,1.234 3.344,0.923 3.276,0.583 3.167,0.24 3.148,0.185 3.109,0.135 3.07,0.065 3.535,0.006 4.006,0.082 4.234,-0.451 4.415,-0.875 4.295,-1.2 4.022,-1.515 4.949,-2.036 5.037,-2.611 4.283,-3.238 4.939,-3.81 4.879,-4.414 4.032,-4.901 2.414,-5.832 0.691,-6.499 -1.171,-6.756 c -0.808,-0.11 -1.317,-0.726 -1.946,-1.134 -1.057,-0.685 -2.075,-1.434 -3.34,-1.718 -1.138,-0.255 -2.247,-0.229 -3.305,0.302 -0.504,0.254 -0.879,0.646 -1.078,1.185 -0.094,0.255 -0.219,0.5 -0.52,0.501 -0.327,0 -0.612,-0.155 -0.799,-0.431 -0.467,-0.684 -0.37,-1.543 0.175,-2.176 0.367,-0.425 0.866,-0.644 1.383,-0.951 -0.704,-0.298 -1.341,-0.569 -1.884,-1.009 -0.347,-0.28 -0.75,-0.58 -0.613,-1.079 0.141,-0.515 0.611,-0.631 1.113,-0.6 -0.196,-0.409 -0.424,-0.8 -0.078,-1.22 0.302,-0.365 0.666,-0.511 1.174,-0.245 -0.091,-0.436 -0.208,-0.855 0.22,-1.107 0.383,-0.228 0.777,-0.137 1.156,0.055 0.088,-0.763 0.4,-0.949 1.143,-0.713 0.292,0.094 0.544,0.251 0.788,0.43 1.297,0.949 2.546,1.978 3.399,3.344 0.493,0.789 1.16,1.139 1.954,1.399 1.817,0.593 3.662,1.033 5.588,1.096 0.403,0.013 0.811,0.086 1.222,0.096 0.437,0.009 0.586,-0.135 0.417,-0.577 -0.492,-1.274 -0.916,-2.576 -1.456,-3.828 -0.693,-1.61 -1.37,-3.234 -2.281,-4.738 -0.852,-1.406 -1.769,-2.775 -3.315,-3.523 -1.161,-0.562 -2.354,-0.523 -3.524,-0.005 -1.608,0.711 -2.927,1.835 -4.17,3.045 -2.519,2.454 -4.631,5.247 -6.575,8.163 -0.969,1.454 -1.866,2.957 -2.705,4.493 -0.228,0.416 -0.101,0.537 0.323,0.532 2.782,-0.028 5.495,0.468 8.208,1.023 1.531,0.313 2.995,0.779 4.384,1.46 1.119,0.549 2.175,1.231 3.113,2.058 1.066,0.94 1.225,3.019 0.399,4.165 -0.15,0.209 -0.466,0.431 -0.254,0.743 0.25,0.367 0.628,0.602 1.085,0.549 0.734,-0.084 1.268,-0.496 1.564,-1.17 C 0.01,1.167 0.047,0.635 0,0" /></g></g><g
       id="g2887"><g
         transform="matrix(1.1878017,0,0,-1.1878017,1034.877,1394.0466)"
         id="g1364"
         style="display:inline;fill:#000000;fill-opacity:1;stroke-width:1.12252188"><path
           inkscape:connector-curvature="0"
           id="path1362"
           style="fill:#000000;fill-opacity:1;fill-rule:nonzero;stroke:none;stroke-width:1.12252188"
           d="m 0,0 c -0.19,-1.187 -0.396,-2.322 -0.543,-3.465 -0.054,-0.412 -0.213,-0.571 -0.602,-0.507 -0.362,0.061 -0.739,0.096 -1.078,0.225 -0.529,0.202 -0.427,0.706 -0.354,1.099 0.29,1.567 0.62,3.127 0.837,4.708 0.094,0.687 0.645,0.89 1.497,0.732 C 0.852,2.587 1.109,1.767 1.397,0.905 1.708,-0.023 2.055,-0.94 2.438,-2.006 2.472,-0.568 2.782,0.683 2.886,1.959 2.899,2.119 2.941,2.173 3.1,2.179 3.546,2.195 3.988,2.166 4.403,2 4.839,1.826 5.003,1.33 4.82,0.614 4.583,-0.31 4.584,-1.262 4.41,-2.193 4.288,-2.849 4.267,-3.523 4.191,-4.187 4.149,-4.557 3.877,-4.589 3.571,-4.628 2.211,-4.801 1.622,-4.46 1.162,-3.203 1.066,-2.942 0.936,-2.694 0.843,-2.433 0.564,-1.647 0.297,-0.859 0,0" /></g><g
         transform="matrix(1.1878017,0,0,-1.1878017,1063.0095,1396.4222)"
         id="g1368"
         style="display:inline;fill:#000000;fill-opacity:1;stroke-width:1.12252188"><path
           inkscape:connector-curvature="0"
           id="path1366"
           style="fill:#000000;fill-opacity:1;fill-rule:nonzero;stroke:none;stroke-width:1.12252188"
           d="m 0,0 c 0,-1.176 -0.009,-2.352 0.006,-3.526 0.004,-0.292 -0.061,-0.395 -0.378,-0.4 -0.399,-0.006 -0.789,-0.143 -1.197,0.007 -0.3,0.11 -0.48,0.269 -0.479,0.604 0.003,1.831 10e-4,3.661 0.002,5.492 0,0.506 0.423,0.522 0.745,0.574 0.367,0.06 0.754,0.047 1.128,0.011 C 0.119,2.733 0.423,2.629 0.581,2.353 1.283,1.125 2.025,-0.08 2.643,-1.372 2.809,-1.066 2.58,-0.785 2.578,-0.492 2.569,0.512 2.652,1.518 2.523,2.52 2.504,2.668 2.542,2.723 2.701,2.774 3.067,2.893 3.44,2.921 3.806,2.872 4.219,2.816 4.491,2.666 4.556,2.118 4.647,1.347 4.617,0.584 4.628,-0.182 4.643,-1.164 4.818,-2.138 4.747,-3.126 4.708,-3.678 4.574,-3.875 4.016,-3.908 3.622,-3.932 3.226,-3.92 2.832,-3.911 2.354,-3.899 2.069,-3.619 1.851,-3.219 1.262,-2.139 0.577,-1.113 0,0" /></g><g
         transform="matrix(1.1878017,0,0,-1.1878017,1107.2963,1379.6922)"
         id="g1372"
         style="display:inline;fill:#000000;fill-opacity:1;stroke-width:1.12252188"><path
           inkscape:connector-curvature="0"
           id="path1370"
           style="fill:#000000;fill-opacity:1;fill-rule:nonzero;stroke:none;stroke-width:1.12252188"
           d="M 0,0 C -0.287,0.93 -0.566,1.862 -0.862,2.789 -1.12,3.598 -0.894,3.939 -0.028,3.975 0.904,4.014 0.76,3.982 1.129,2.951 1.672,1.435 2.094,-0.124 2.603,-1.653 2.678,-1.878 2.686,-2 2.531,-2.161 1.908,-2.809 0.484,-2.994 -0.032,-2.373 c -0.73,0.877 -1.662,1.559 -2.322,2.497 -0.048,0.069 -0.127,0.116 -0.284,0.256 0.197,-0.707 0.358,-1.304 0.53,-1.898 0.096,-0.334 0.209,-0.66 0.289,-1 0.076,-0.322 0.387,-0.783 0.195,-0.934 -0.414,-0.327 -0.968,-0.5 -1.54,-0.431 -0.236,0.029 -0.344,0.177 -0.409,0.415 -0.381,1.41 -0.782,2.816 -1.176,4.223 -0.093,0.335 -0.157,0.681 -0.278,1.006 -0.127,0.341 0.027,0.562 0.264,0.742 0.795,0.602 1.648,0.528 2.361,-0.168 0.801,-0.782 1.586,-1.58 2.327,-2.421 0.049,-0.033 0.097,-0.067 0.146,-0.101 C 0.122,-0.097 0.097,-0.035 0,0" /></g><g
         transform="matrix(1.1878017,0,0,-1.1878017,1044.7935,1398.5264)"
         id="g1376"
         style="display:inline;fill:#000000;fill-opacity:1;stroke-width:1.12252188"><path
           inkscape:connector-curvature="0"
           id="path1374"
           style="fill:#000000;fill-opacity:1;fill-rule:nonzero;stroke:none;stroke-width:1.12252188"
           d="M 0,0 C 0.322,0.058 0.681,-0.017 1.041,0.189 1.663,0.546 2.04,1.77 1.758,2.707 1.555,3.383 0.738,3.872 -0.136,3.899 -0.524,3.911 -0.604,3.771 -0.621,3.408 -0.658,2.58 -0.718,1.75 -0.842,0.932 -0.977,0.039 -1.012,0.045 -0.144,0.014 -0.108,0.012 -0.073,0.007 0,0 m 4.023,1.898 c 0.023,-2.406 -1.476,-3.39 -3.477,-3.492 -1.084,-0.055 -2.153,0.1 -3.154,0.556 -0.519,0.236 -0.632,0.569 -0.547,1.12 0.155,1.014 0.264,2.033 0.391,3.051 0.075,0.596 0.112,1.201 0.233,1.788 0.111,0.538 0.661,0.538 1.033,0.562 C -0.122,5.574 1.256,5.432 2.466,4.73 3.472,4.146 4.109,3.289 4.023,1.898" /></g><g
         transform="matrix(1.1878017,0,0,-1.1878017,1032.6249,1382.2905)"
         id="g1380"
         style="display:inline;fill:#000000;fill-opacity:1;stroke-width:1.12252188"><path
           inkscape:connector-curvature="0"
           id="path1378"
           style="fill:#000000;fill-opacity:1;fill-rule:nonzero;stroke:none;stroke-width:1.12252188"
           d="m 0,0 c -0.235,-1.197 -0.472,-2.395 -0.701,-3.593 -0.02,-0.104 0.007,-0.232 -0.135,-0.247 -0.539,-0.056 -1.078,0.022 -1.516,0.319 -0.383,0.259 -0.233,0.75 -0.153,1.1 0.337,1.482 0.663,2.964 0.94,4.458 C -1.413,2.861 -0.9,3.101 0.117,2.803 0.662,2.644 1.001,2.308 1.148,1.71 1.434,0.554 1.802,-0.582 2.159,-1.802 2.361,-0.613 2.571,0.504 2.735,1.628 2.801,2.08 2.977,2.286 3.439,2.188 3.662,2.141 3.89,2.112 4.106,2.043 4.566,1.896 4.729,1.403 4.566,0.687 4.245,-0.726 4.065,-2.163 3.824,-3.59 3.783,-3.83 3.689,-4.055 3.706,-4.315 3.724,-4.605 3.439,-4.588 3.241,-4.604 1.75,-4.729 1.16,-4.255 0.798,-2.707 0.585,-1.799 0.235,-0.927 0,0" /></g><g
         transform="matrix(1.1878017,0,0,-1.1878017,1056.867,1397.0648)"
         id="g1384"
         style="display:inline;fill:#000000;fill-opacity:1;stroke-width:1.12252188"><path
           inkscape:connector-curvature="0"
           id="path1382"
           style="fill:#000000;fill-opacity:1;fill-rule:nonzero;stroke:none;stroke-width:1.12252188"
           d="M 0,0 C 0,0.183 0,0.29 0,0.397 -0.004,1.157 -0.392,1.72 -1.062,1.939 -1.79,2.179 -2.557,1.978 -2.946,1.361 -3.305,0.792 -3.341,0.146 -3.23,-0.522 c 0.111,-0.673 0.537,-1.237 1.09,-1.339 0.871,-0.163 1.582,0.11 1.931,0.752 C -0.009,-0.74 0.033,-0.338 0,0 M -5.495,0.062 C -5.642,1.74 -4.236,3.335 -2.403,3.543 -1.061,3.696 0.122,3.428 1.162,2.61 1.64,2.233 1.921,1.682 2.09,1.076 2.413,-0.078 2.274,-1.146 1.576,-2.125 1.112,-2.774 0.449,-3.122 -0.309,-3.306 c -1.033,-0.251 -2.049,-0.235 -3.058,0.149 -1.356,0.516 -2.257,1.75 -2.128,3.219" /></g><g
         transform="matrix(1.1878017,0,0,-1.1878017,1018.3103,1377.0126)"
         id="g1388"
         style="display:inline;fill:#000000;fill-opacity:1;stroke-width:1.12252188"><path
           inkscape:connector-curvature="0"
           id="path1386"
           style="fill:#000000;fill-opacity:1;fill-rule:nonzero;stroke:none;stroke-width:1.12252188"
           d="m 0,0 c -0.187,-0.001 -0.579,-0.758 -0.563,-1.086 0.004,-0.101 0.897,-0.415 1.208,-0.424 0.376,-0.011 0.698,0.303 0.68,0.662 C 1.305,-0.457 0.587,0.002 0,0 m -0.106,-4.084 c 0.398,-0.052 0.702,0 0.836,0.454 0.101,0.338 -0.075,0.537 -0.286,0.667 -0.419,0.258 -0.92,0.481 -1.378,0.43 -0.243,-0.028 -0.201,-0.634 -0.357,-0.954 -0.007,-0.016 -0.02,-0.03 -0.029,-0.045 -0.102,-0.163 0.002,-0.212 0.134,-0.256 0.36,-0.119 0.68,-0.381 1.08,-0.296 m 1.848,1.685 C 2.636,-2.867 2.84,-3.528 2.727,-4.3 2.613,-5.064 1.836,-5.672 0.974,-5.71 c -1.452,-0.064 -2.752,0.389 -3.977,1.135 -0.439,0.267 -0.539,0.637 -0.406,1.072 0.32,1.048 0.673,2.085 1.011,3.127 0.167,0.514 0.331,1.028 0.493,1.543 0.131,0.414 0.427,0.632 0.84,0.553 C 0.048,1.506 1.177,1.321 2.188,0.76 2.642,0.509 3.021,0.193 3.227,-0.318 3.651,-1.374 3.067,-2.314 1.742,-2.399" /></g><g
         transform="matrix(1.1878017,0,0,-1.1878017,1068.1882,1384.9444)"
         id="g1392"
         style="display:inline;fill:#000000;fill-opacity:1;stroke-width:1.12252188"><path
           inkscape:connector-curvature="0"
           id="path1390"
           style="fill:#000000;fill-opacity:1;fill-rule:nonzero;stroke:none;stroke-width:1.12252188"
           d="m 0,0 c 0.383,0.038 0.836,-0.142 1.021,0.355 0.13,0.351 0.06,0.66 -0.327,0.83 C 0.301,1.357 -0.554,1.315 -0.678,1.109 -0.687,1.095 -0.691,1.076 -0.692,1.06 -0.717,0.717 -0.734,0.357 -0.571,0.06 -0.452,-0.156 -0.18,0.061 0,0 m 0.272,-1.404 c -0.213,0 -0.427,-0.004 -0.641,0.002 -0.154,0.004 -0.201,-0.057 -0.225,-0.213 -0.153,-0.975 0.306,-1.388 1.259,-1.118 0.066,0.018 0.136,0.026 0.204,0.04 0.443,0.089 0.506,0.399 0.491,0.789 -0.016,0.416 -0.297,0.47 -0.607,0.498 -0.159,0.014 -0.32,0.003 -0.481,0.002 m 1.787,0.913 c 0.894,-0.225 1.407,-0.733 1.44,-1.47 0.035,-0.803 -0.245,-1.413 -1.082,-1.817 -1.343,-0.649 -2.743,-0.544 -4.143,-0.307 -0.488,0.083 -0.793,0.416 -0.804,0.958 -0.032,1.611 0.066,3.225 -0.066,4.837 -0.043,0.525 0.357,0.709 0.805,0.801 1.165,0.24 2.336,0.362 3.502,0.059 C 2.484,2.369 2.973,1.837 3.074,1.032 3.164,0.311 2.715,-0.124 2.059,-0.491" /></g><g
         transform="matrix(1.1878017,0,0,-1.1878017,1043.4717,1388.9323)"
         id="g1396"
         style="display:inline;fill:#000000;fill-opacity:1;stroke-width:1.12252188"><path
           inkscape:connector-curvature="0"
           id="path1394"
           style="fill:#000000;fill-opacity:1;fill-rule:nonzero;stroke:none;stroke-width:1.12252188"
           d="m 0,0 c -1.477,0.012 -2.602,0.322 -3.524,1.189 -1.049,0.987 -1.111,2.175 -0.742,3.476 0.44,1.554 2.195,2.394 3.448,2.364 C 0.089,7.008 0.948,6.908 1.714,6.378 1.932,6.228 2.072,6.029 2.123,5.786 2.198,5.421 2.04,5.118 1.762,4.896 1.479,4.672 1.25,4.919 1.028,5.046 0.134,5.557 -1.038,5.679 -1.777,4.962 -2.332,4.424 -2.507,3.707 -2.363,2.967 c 0.146,-0.755 0.766,-1.245 1.501,-1.33 0.137,-0.016 0.27,-0.1 0.405,-0.101 0.366,-0.005 0.783,0.755 0.59,1.07 -0.104,0.171 -0.3,0.117 -0.446,0.096 -0.786,-0.111 -1.016,0.323 -0.793,1.076 0.092,0.311 0.313,0.487 0.623,0.434 C 0.222,4.093 0.942,4.109 1.644,3.918 2.019,3.815 2.104,3.653 2.131,3.3 2.194,2.455 1.935,1.648 1.889,0.817 1.872,0.513 1.564,0.34 1.27,0.228 0.781,0.041 0.278,-0.026 0,0" /></g><g
         transform="matrix(1.1878017,0,0,-1.1878017,1052.0595,1384.8168)"
         id="g1400"
         style="display:inline;fill:#000000;fill-opacity:1;stroke-width:1.12252188"><path
           inkscape:connector-curvature="0"
           id="path1398"
           style="fill:#000000;fill-opacity:1;fill-rule:nonzero;stroke:none;stroke-width:1.12252188"
           d="M 0,0 C 0.408,0.091 0.897,-0.057 1.391,-0.116 1.673,-0.15 1.864,-0.342 1.891,-0.639 1.97,-1.497 1.834,-2.35 1.778,-3.203 1.755,-3.561 1.46,-3.779 1.115,-3.878 c -1.739,-0.495 -3.404,-0.401 -4.859,0.773 -0.484,0.389 -0.819,0.969 -0.911,1.604 -0.324,2.229 0.843,4.047 3.186,4.307 C -0.548,2.907 0.333,2.858 1.158,2.411 1.634,2.154 1.809,1.726 1.675,1.218 1.582,0.865 1.246,0.707 0.923,0.878 0.158,1.281 -0.639,1.469 -1.476,1.16 -2.383,0.826 -2.865,-0.317 -2.568,-1.308 c 0.318,-1.059 1.249,-1.369 2.158,-1.268 0.418,0.047 0.281,0.472 0.359,0.737 0.074,0.252 -0.068,0.347 -0.31,0.358 -0.158,0.006 -0.319,0.089 -0.471,0.071 -0.542,-0.066 -0.626,0.283 -0.607,0.677 0.019,0.389 0.144,0.738 0.643,0.734 C -0.563,-0.001 -0.331,0 0,0" /></g><g
         transform="matrix(1.1878017,0,0,-1.1878017,1092.1356,1392.5108)"
         id="g1404"
         style="display:inline;fill:#000000;fill-opacity:1;stroke-width:1.12252188"><path
           inkscape:connector-curvature="0"
           id="path1402"
           style="fill:#000000;fill-opacity:1;fill-rule:nonzero;stroke:none;stroke-width:1.12252188"
           d="m 0,0 c -0.044,-0.001 -0.088,-0.002 -0.132,-0.003 -0.118,-0.694 -0.236,-1.39 -0.358,-2.108 0.529,-0.113 0.97,0.198 1.502,0.2 C 0.655,-1.236 0.328,-0.618 0,0 M 0.215,1.821 C 1.085,2.03 1.412,1.378 1.742,0.811 2.569,-0.613 3.334,-2.073 4.174,-3.489 4.445,-3.945 4.245,-4.17 3.904,-4.289 2.94,-4.627 2.211,-4.814 1.77,-3.612 1.649,-3.282 1.418,-3.27 1.179,-3.354 0.676,-3.532 0.153,-3.575 -0.366,-3.647 c -0.137,-0.019 -0.232,-0.02 -0.242,-0.2 -0.016,-0.246 -0.133,-0.502 -0.09,-0.731 0.091,-0.476 -0.19,-0.612 -0.539,-0.727 -0.437,-0.142 -0.898,-0.114 -1.325,-0.038 -0.324,0.058 -0.402,0.422 -0.365,0.745 0.047,0.403 0.086,0.808 0.173,1.202 0.32,1.453 0.539,2.926 0.907,4.37 0.071,0.277 0.239,0.456 0.443,0.511 0.533,0.145 1.029,0.491 1.619,0.336" /></g><g
         transform="matrix(1.1878017,0,0,-1.1878017,1076.3323,1389.4266)"
         id="g1408"
         style="display:inline;fill:#000000;fill-opacity:1;stroke-width:1.12252188"><path
           inkscape:connector-curvature="0"
           id="path1406"
           style="fill:#000000;fill-opacity:1;fill-rule:nonzero;stroke:none;stroke-width:1.12252188"
           d="m 0,0 c -1.059,-0.057 -1.942,0.241 -2.554,1.179 -0.223,0.343 -0.313,0.725 -0.336,1.093 -0.08,1.317 -0.252,2.626 -0.252,3.948 0,0.23 0.055,0.322 0.288,0.394 0.392,0.122 0.796,0.117 1.162,0.039 C -1.06,6.518 -1.138,5.875 -1.106,5.444 -1.036,4.493 -0.964,3.541 -0.878,2.59 -0.819,1.938 -0.421,1.503 0.168,1.508 0.814,1.515 1.32,1.988 1.271,2.64 1.182,3.825 1.062,5.011 0.903,6.189 0.808,6.899 0.799,6.937 1.503,7.006 1.624,7.018 1.739,7.086 1.86,7.098 2.334,7.144 2.855,6.901 2.91,6.277 3.009,5.143 3.222,4.018 3.313,2.882 3.413,1.643 2.872,0.573 1.21,0.103 0.808,-0.011 0.406,0.008 0,0" /></g><g
         transform="matrix(1.1878017,0,0,-1.1878017,1097.4412,1379.7837)"
         id="g1412"
         style="display:inline;fill:#000000;fill-opacity:1;stroke-width:1.12252188"><path
           inkscape:connector-curvature="0"
           id="path1410"
           style="fill:#000000;fill-opacity:1;fill-rule:nonzero;stroke:none;stroke-width:1.12252188"
           d="m 0,0 c -0.149,-0.793 -0.274,-1.511 -0.208,-2.241 0.318,0.053 0.625,0.1 0.93,0.159 0.288,0.055 0.415,0.177 0.225,0.479 C 0.634,-1.101 0.343,-0.584 0,0 m -2.377,-4.451 c 0.107,0.965 0.224,2.094 0.361,3.221 0.078,0.646 0.211,1.286 0.274,1.933 0.026,0.262 0.106,0.425 0.327,0.553 0.664,0.383 1.345,0.599 2.132,0.443 C 1.046,1.634 1.233,1.422 1.368,1.206 2.313,-0.307 3.205,-1.853 4.19,-3.341 4.489,-3.792 4.38,-4.069 3.873,-4.295 2.951,-4.704 2.586,-4.606 2.059,-3.765 1.87,-3.464 1.703,-3.231 1.306,-3.467 1.211,-3.523 1.057,-3.468 0.937,-3.495 -0.218,-3.756 -0.229,-3.757 -0.32,-4.969 -0.339,-5.211 -0.443,-5.265 -0.626,-5.371 -0.92,-5.542 -1.238,-5.556 -1.54,-5.587 c -0.598,-0.062 -0.84,0.248 -0.837,1.136" /></g><g
         transform="matrix(1.1878017,0,0,-1.1878017,1084.1963,1382.4041)"
         id="g1416"
         style="display:inline;fill:#000000;fill-opacity:1;stroke-width:1.12252188"><path
           inkscape:connector-curvature="0"
           id="path1414"
           style="fill:#000000;fill-opacity:1;fill-rule:nonzero;stroke:none;stroke-width:1.12252188"
           d="m 0,0 c -0.039,-0.01 -0.078,-0.02 -0.117,-0.029 -0.111,-0.695 -0.221,-1.389 -0.331,-2.075 0.466,-0.14 0.88,0.111 1.369,0.082 C 0.603,-1.324 0.302,-0.662 0,0 M 0.241,1.737 C 0.883,1.858 1.26,1.501 1.564,0.854 2.277,-0.669 3.071,-2.154 3.823,-3.658 4.093,-4.198 4.02,-4.358 3.458,-4.579 2.519,-4.947 2.094,-4.804 1.679,-3.888 1.498,-3.486 1.327,-3.339 0.884,-3.52 0.635,-3.621 0.316,-3.623 0.05,-3.624 c -0.649,-0.005 -0.78,-0.361 -0.752,-0.877 0.018,-0.349 -0.046,-0.645 -0.412,-0.752 -0.532,-0.157 -1.135,-0.294 -1.557,0.112 -0.329,0.316 -0.143,0.87 -0.057,1.277 0.327,1.555 0.593,3.126 1.024,4.66 0.159,0.567 0.606,0.899 1.316,0.939 0.179,0.01 0.359,0.002 0.629,0.002" /></g><g
         transform="matrix(1.1878017,0,0,-1.1878017,1026.3524,1379.6562)"
         id="g1420"
         style="display:inline;fill:#000000;fill-opacity:1;stroke-width:1.12252188"><path
           inkscape:connector-curvature="0"
           id="path1418"
           style="fill:#000000;fill-opacity:1;fill-rule:nonzero;stroke:none;stroke-width:1.12252188"
           d="m 0,0 c -0.38,-0.59 -0.702,-1.106 -1.043,-1.609 -0.082,-0.122 -0.146,-0.26 -0.006,-0.309 0.341,-0.117 0.698,-0.189 1.052,-0.264 0.166,-0.035 0.157,0.108 0.152,0.21 C 0.125,-1.339 0.253,-0.693 0,0 M 1.886,-0.207 C 2.056,-1.4 1.993,-2.609 2.191,-3.801 2.272,-4.289 2.225,-4.799 2.23,-5.298 2.232,-5.475 2.083,-5.52 1.957,-5.525 1.497,-5.548 1.044,-5.547 0.611,-5.327 c -0.406,0.206 -0.472,0.579 -0.439,0.935 0.044,0.488 -0.102,0.727 -0.595,0.782 -0.257,0.029 -0.503,0.141 -0.757,0.205 -0.452,0.114 -0.806,0.144 -1.05,-0.434 -0.33,-0.78 -1.442,-0.826 -2.009,-0.154 -0.254,0.301 -0.167,0.62 0.008,0.885 1.027,1.556 2.074,3.101 3.12,4.647 0.112,0.166 0.271,0.255 0.496,0.26 C 0.136,1.815 0.859,1.696 1.467,1.247 1.947,0.892 1.829,0.302 1.886,-0.207" /></g><g
         transform="matrix(1.1878017,0,0,-1.1878017,1057.8285,1386.4744)"
         id="g1424"
         style="display:inline;fill:#000000;fill-opacity:1;stroke-width:1.12252188"><path
           inkscape:connector-curvature="0"
           id="path1422"
           style="fill:#000000;fill-opacity:1;fill-rule:nonzero;stroke:none;stroke-width:1.12252188"
           d="M 0,0 C 0.417,0 0.755,0.012 1.093,-0.004 1.312,-0.014 1.394,0.072 1.342,0.272 1.183,0.891 1.015,1.507 0.812,2.267 0.518,1.446 0.276,0.771 0,0 m 0.662,-1.519 c -0.531,-0.001 -1.104,0.197 -1.273,-0.647 -0.149,-0.737 -0.75,-0.966 -1.483,-0.703 -0.58,0.208 -0.727,0.522 -0.495,1.21 0.459,1.36 0.997,2.69 1.551,4.014 0.041,0.097 0.085,0.192 0.121,0.291 0.37,1.037 1.15,1.425 2.231,1.231 C 2.185,3.721 2.432,3.094 2.641,2.397 3.101,0.872 3.545,-0.658 4.013,-2.181 4.143,-2.603 4.107,-2.843 3.603,-2.936 3.32,-2.987 3.035,-3.069 2.764,-3.009 2.445,-2.937 2.096,-2.907 1.976,-2.454 1.724,-1.509 1.696,-1.516 0.662,-1.519" /></g><g
         transform="matrix(1.1878017,0,0,-1.1878017,1072.0956,1395.8678)"
         id="g1428"
         style="display:inline;fill:#000000;fill-opacity:1;stroke-width:1.12252188"><path
           inkscape:connector-curvature="0"
           id="path1426"
           style="fill:#000000;fill-opacity:1;fill-rule:nonzero;stroke:none;stroke-width:1.12252188"
           d="M 0,0 C 0.816,0.05 1.579,0.081 2.338,0.15 2.799,0.193 2.991,-0.007 3.02,-0.438 3.057,-1.013 2.867,-1.339 2.393,-1.354 1.787,-1.373 1.19,-1.55 0.582,-1.469 0.224,-1.422 0.077,-1.517 0.097,-1.919 c 0.037,-0.751 0.11,-0.798 0.862,-0.676 0.7,0.113 1.417,0.071 2.126,0.148 0.521,0.056 0.54,-0.415 0.579,-0.77 0.043,-0.382 -0.14,-0.682 -0.541,-0.724 -1.024,-0.11 -2.05,-0.229 -3.082,-0.221 -0.45,0.004 -0.881,-0.247 -1.354,0.009 -0.411,0.22 -0.626,0.538 -0.617,0.959 0.026,1.252 -0.195,2.495 -0.116,3.748 0.024,0.382 -0.14,0.744 -0.022,1.15 0.132,0.455 0.413,0.673 0.826,0.693 1.101,0.056 2.192,0.26 3.299,0.226 C 2.111,2.621 2.167,2.616 2.218,2.626 2.466,2.672 2.751,2.89 2.951,2.621 3.166,2.331 3.172,1.954 3.109,1.604 3.023,1.122 2.561,1.147 2.257,1.142 1.666,1.129 1.088,0.954 0.5,1.013 0.107,1.052 -0.064,0.938 -0.004,0.527 0.021,0.353 0,0.172 0,0" /></g><g
         transform="matrix(1.1878017,0,0,-1.1878017,1080.9281,1391.9854)"
         id="g1432"
         style="display:inline;fill:#000000;fill-opacity:1;stroke-width:1.12252188"><path
           inkscape:connector-curvature="0"
           id="path1430"
           style="fill:#000000;fill-opacity:1;fill-rule:nonzero;stroke:none;stroke-width:1.12252188"
           d="m 0,0 c 0.388,0.062 0.85,-0.011 1.288,-0.221 0.254,-0.123 0.42,-0.31 0.437,-0.616 0.017,-0.318 0.013,-0.667 -0.308,-0.79 -0.335,-0.128 -0.723,-0.019 -1.066,0.061 -0.516,0.122 -0.972,-0.078 -1.447,-0.17 -0.188,-0.036 -0.281,-0.235 -0.292,-0.409 -0.011,-0.195 0.208,-0.255 0.338,-0.287 0.574,-0.14 1.163,-0.219 1.736,-0.366 0.717,-0.182 1.404,-0.449 1.764,-1.171 0.405,-0.815 0.082,-2 -0.775,-2.447 -1.312,-0.686 -2.735,-0.859 -4.167,-0.441 -0.862,0.251 -0.975,1.007 -0.341,1.619 0.199,0.191 0.309,0.083 0.479,0.008 0.695,-0.307 1.415,-0.371 2.146,-0.154 0.259,0.076 0.556,0.144 0.53,0.522 -0.026,0.385 -0.33,0.37 -0.603,0.456 -0.761,0.24 -1.565,0.261 -2.315,0.611 -1.113,0.52 -1.2,2.077 -0.544,2.767 0.766,0.805 1.739,0.988 2.776,1.027 C -0.274,0.003 -0.185,0 0,0" /></g><g
         transform="matrix(1.1878017,0,0,-1.1878017,1087.1855,1380.518)"
         id="g1440"
         style="display:inline;fill:#000000;fill-opacity:1;stroke-width:1.12252188"><path
           inkscape:connector-curvature="0"
           id="path1438"
           style="fill:#000000;fill-opacity:1;fill-rule:nonzero;stroke:none;stroke-width:1.12252188"
           d="M 0,0 C -0.141,0.596 0.426,0.613 0.823,0.679 2.234,0.91 3.636,1.183 5.025,1.52 5.261,1.577 5.393,1.556 5.524,1.297 5.943,0.468 5.724,-0.042 4.82,-0.164 4.641,-0.188 4.48,-0.279 4.305,-0.278 3.973,-0.275 3.961,-0.5 4.005,-0.719 4.296,-2.185 4.591,-3.651 4.911,-5.111 4.949,-5.284 4.958,-5.31 4.792,-5.351 4.419,-5.443 4.06,-5.6 3.683,-5.657 3.229,-5.728 2.91,-5.462 2.818,-5.04 2.575,-3.925 2.365,-2.802 2.173,-1.677 2.129,-1.419 2.006,-1.177 2.046,-0.896 2.079,-0.677 1.908,-0.674 1.766,-0.752 1.508,-0.895 1.213,-0.854 0.944,-0.905 0.143,-1.055 0.075,-0.937 0,0" /></g><g
         transform="matrix(1.1878017,0,0,-1.1878017,1030.0016,1398.146)"
         id="g1456"
         style="display:inline;fill:#000000;fill-opacity:1;stroke-width:1.12252188"><path
           inkscape:connector-curvature="0"
           id="path1454"
           style="fill:#000000;fill-opacity:1;fill-rule:nonzero;stroke:none;stroke-width:1.12252188"
           d="m 0,0 c -0.312,0.05 -0.633,0.066 -0.934,0.155 -0.642,0.191 -0.837,0.605 -0.656,1.324 0.399,1.579 0.617,3.195 1.033,4.77 0.184,0.7 0.266,0.79 0.956,0.603 C 1.558,6.535 1.645,6.333 1.391,5.141 1.075,3.659 0.836,2.162 0.526,0.68 0.472,0.419 0.623,-0.123 0,0" /></g><g
         transform="matrix(1.1878017,0,0,-1.1878017,1085.6567,1391.4738)"
         id="g1460"
         style="display:inline;fill:#000000;fill-opacity:1;stroke-width:1.12252188"><path
           inkscape:connector-curvature="0"
           id="path1458"
           style="fill:#000000;fill-opacity:1;fill-rule:nonzero;stroke:none;stroke-width:1.12252188"
           d="m 0,0 c 0.814,0 0.813,-0.013 0.977,-0.818 0.33,-1.628 0.557,-3.272 0.752,-4.921 0.102,-0.863 0.095,-0.868 -0.788,-0.945 -0.511,-0.044 -1.064,-0.207 -1.302,0.449 -0.113,0.308 -0.126,0.654 -0.174,0.985 -0.173,1.206 -0.341,2.413 -0.511,3.62 -0.05,0.351 -0.032,0.706 -0.126,1.057 -0.075,0.278 0.027,0.478 0.386,0.481 C -0.51,-0.091 -0.243,0.062 0,0" /></g><g
         transform="matrix(1.1878017,0,0,-1.1878017,1107.2963,1379.6922)"
         id="g1484"
         style="display:inline;fill:#000000;fill-opacity:1;stroke-width:1.12252188"><path
           inkscape:connector-curvature="0"
           id="path1482"
           style="fill:#000000;fill-opacity:1;fill-rule:nonzero;stroke:none;stroke-width:1.12252188"
           d="M 0,0 C 0.097,-0.035 0.122,-0.097 0.071,-0.187 0.022,-0.153 -0.026,-0.119 -0.075,-0.086 -0.05,-0.058 -0.025,-0.029 0,0" /></g></g></g><g
     sodipodi:insensitive="true"
     transform="translate(0,-13.808228)"
     style="display:inline"
     inkscape:label="dekorasi-samping"
     id="layer2"
     inkscape:groupmode="layer"><path
       inkscape:connector-curvature="0"
       id="path2931"
       d="M 0,13.808205 V 138.80235 H 124.99414 V 13.808205 Z m 62.498047,30.929687 c 17.434546,0 31.568359,14.132627 31.568359,31.56836 0,17.434533 -14.133813,31.568358 -31.568359,31.568358 -17.435746,0 -31.570312,-14.133825 -31.570312,-31.568358 0,-17.435733 14.134566,-31.56836 31.570312,-31.56836 z M 0,138.8043 v 125 H -0.00390625 V 398.95079 L 114.85156,513.80626 h 1.69141 v 8.30859 h 8.48046 v -8.30859 h -0.0273 V 500.73204 L 13.070313,388.80626 h 23.050781 l 88.874996,88.87695 V 454.63243 L 59.169922,388.80626 H 82.21875 l 42.77734,42.77734 v -20.55859 l -22.21875,-22.21875 h 22.2207 V 263.8043 h -0.004 v -125 h -7.82617 v 125 h -15.5918 v -125 H 85.976563 v 125 H 70.378906 v -125 H 54.669922 v 125 H 39.070313 v -125 H 23.417969 v 125 H 7.8261718 v -125 z M 30.800782,294.31993 H 94.19336 v 63.96875 H 30.800782 Z m 15.908203,15.90234 v 32.16016 H 78.283203 V 310.22227 Z M -0.00195312,421.99962 v 23.13476 L 68.667969,513.80626 h -2.300781 v 9.96289 1.85547 46.66601 h 46.787102 1.14844 10.72266 v -9.0293 H 75.396485 v -0.008 -16.05059 -33.39648 h 16.058593 v 33.39648 h 33.570312 v -9.03125 h -24.53907 v -0.006 -16.05078 -8.30859 h -8.683585 z m 0,46.18164 v 23.40429 L 22.216797,513.8043 h -6.025391 v 13.47266 46.66601 1.85547 46.66602 h 46.785157 1.152343 60.896484 v -9.02734 H 89.214844 88.066406 25.222656 v -0.008 -16.05078 -46.66601 -1.85547 -35.05078 h 16.056641 v 35.05078 1.85547 46.66601 h 46.787109 1.150391 35.806633 v -9.0293 h -10.71875 -1.15234 -62.841793 v -0.008 -16.05078 -46.66601 -1.85743 -9.96289 H 45.619141 Z M 0.0234375,638.8004 v 125.00195 h 0.0039063 v 7.82617 H 125.02148 v -7.82617 h 0.004 V 638.8004 Z m 63.6796875,14.43164 c 0.193614,0 0.385699,-8.1e-4 0.578125,0.006 v 16.28711 c -0.192426,-0.007 -0.384511,-0.008 -0.578125,-0.008 -11.767559,0 -22.035216,6.39762 -27.537109,15.89649 -2.69632,4.67756 -4.25,10.09492 -4.25,15.89258 0,11.76042 6.395604,22.04505 15.90039,27.54101 4.67044,2.70225 10.103306,4.25 15.886719,4.25 17.559266,0 31.789063,-14.23292 31.789063,-31.79101 v -0.1836 h 16.287102 v 0.1836 c 0,26.55449 -21.521672,48.07812 -48.076165,48.07812 -5.563666,0 -10.920519,-0.95127 -15.886719,-2.69141 -18.742319,-6.56022 -32.18164,-24.41013 -32.18164,-45.38671 0,-5.5696 0.943386,-10.91925 2.689453,-15.89258 6.561413,-18.74115 24.3952,-32.18164 45.378906,-32.18164 z M 0.02734375,787.23008 v 15.59961 H 125.02148 v -15.59961 z m 0,31.19141 v 15.71484 H 125.02148 v -15.71484 z m 0,31.30664 v 15.6543 H 125.02148 v -15.6543 z m 0,31.24805 v 7.82812 h -0.0039063 v 58.41211 C 8.2774772,934.71956 22.205079,926.29479 38.140625,925.63438 c 0.12472,-3.02592 0.527634,-5.98 1.1875,-8.83594 0.263947,-1.14238 0.569743,-2.26938 0.914063,-3.3789 0.172146,-0.55476 0.353242,-1.10445 0.544922,-1.65039 0.20288,-0.58024 0.416265,-1.15671 0.640625,-1.72657 0.22412,-0.56929 0.460024,-1.13296 0.705078,-1.6914 0.245093,-0.55846 0.502045,-1.11109 0.767578,-1.65821 v -0.002 c 0.2658,-0.54763 0.540372,-1.0892 0.826172,-1.625 0.571586,-1.07159 1.183404,-2.11929 1.832031,-3.14062 0.324307,-0.51067 0.657173,-1.01435 1,-1.51172 1.714173,-2.48688 3.658282,-4.80357 5.798828,-6.92188 0.427747,-0.4233 0.863347,-0.8409 1.306641,-1.24804 1.330706,-1.22204 2.733206,-2.36986 4.195312,-3.4375 H 98.25 c 0.179654,1.22342 0.429541,2.42373 0.744141,3.59765 0.157293,0.58696 0.330051,1.16721 0.519531,1.74024 1.136888,3.43808 2.844718,6.61493 5.009758,9.41992 0.36084,0.46748 0.73337,0.92484 1.11914,1.37109 0.38579,0.44628 0.78564,0.88266 1.19532,1.30664 0.40966,0.424 0.82917,0.83565 1.26172,1.23633 0.43254,0.40068 0.87571,0.78968 1.33007,1.16602 h 0.004 c 0.454,0.37597 0.91783,0.74117 1.39258,1.09179 0.47558,0.35127 0.96167,0.68888 1.45703,1.01368 0.49492,0.32449 0.99806,0.63461 1.51172,0.93164 0.84928,0.49174 1.72233,0.9439 2.61914,1.35546 0.44843,0.2058 0.90199,0.40287 1.36133,0.5879 h 0.002 c 2.29675,0.92509 4.72471,1.58733 7.24805,1.95703 v -26.77735 h -0.004 v -7.82812 z M 83.105469,896.04063 c -9.812733,0.94208 -18.332355,6.32763 -23.490234,14.13672 -0.343854,0.5206 -0.672969,1.05219 -0.986329,1.59375 -2.696306,4.67756 -4.24414,10.09568 -4.24414,15.89453 0,11.76043 6.389745,22.04235 15.894531,27.53711 4.676373,2.70225 10.102119,4.25 15.886719,4.25 16.519944,0 30.096834,-12.59798 31.644524,-28.71289 -1.36121,-0.3504 -2.70192,-0.75007 -4.01562,-1.21094 C 98.725269,924.25389 87.088162,911.6733 83.105469,896.04063 Z m -42.945313,45.83789 c -6.619919,0 -12.765689,2.02489 -17.853515,5.48633 -1.130627,0.76915 -2.208689,1.60896 -3.228516,2.51367 -0.50992,0.45239 -1.004548,0.92044 -1.484375,1.4043 -0.479813,0.48382 -0.944471,0.98239 -1.392578,1.49609 v 0.002 c -0.44776,0.51334 -0.880415,1.04046 -1.294922,1.58204 v 0.004 c -0.414466,0.54158 -0.811779,1.09588 -1.191406,1.66406 -0.143827,0.21522 -0.271476,0.44128 -0.410156,0.66016 -0.227734,0.35953 -0.462275,0.71488 -0.675782,1.08399 v 0.002 c -0.337786,0.5844 -0.658051,1.18012 -0.958984,1.78711 -0.301053,0.60706 -0.583063,1.2234 -0.845703,1.85156 v 0.002 c -1.3127468,3.14063 -2.1370135,6.53519 -2.3750002,10.09571 -0.0476,0.7122 -0.072266,1.43154 -0.072266,2.15625 0,2.9404 0.4008243,5.78842 1.1484375,8.49218 0.9343737,3.37968 2.4114647,6.533 4.3339847,9.36133 v 0.004 c 1.92236,2.8278 4.28956,5.3294 7,7.4043 h 0.002 c 1.08396,0.82972 2.222517,1.5926 3.410157,2.2793 h 0.002 c 1.168933,0.6752 2.384305,1.2798 3.640625,1.8047 1.256666,0.5251 2.554679,0.9716 3.886719,1.334 0.666066,0.1811 1.34085,0.3403 2.023437,0.4785 1.36516,0.2763 2.761394,0.4653 4.183594,0.5605 0.711106,0.048 1.429264,0.072 2.152343,0.072 0.548027,0 1.093539,-0.014 1.634766,-0.041 2.167627,-0.1098 4.27872,-0.4364 6.310547,-0.959 0.507933,-0.1306 1.011992,-0.2749 1.509766,-0.4297 0.995613,-0.3095 1.968922,-0.6662 2.919921,-1.0683 4.279294,-1.8095 8.08085,-4.52898 11.160157,-7.91602 0.684306,-0.75268 1.332972,-1.53757 1.943359,-2.35352 2.13596,-2.85532 3.802772,-6.08294 4.886719,-9.5664 0.6194,-1.99096 1.048505,-4.06752 1.265625,-6.20508 0.1086,-1.06879 0.164062,-2.15255 0.164062,-3.25 v -0.0684 c -0.564213,-0.17935 -1.127787,-0.35835 -1.677734,-0.55078 -0.894933,-0.31336 -1.776658,-0.65168 -2.646484,-1.01563 -0.869814,-0.36393 -1.727366,-0.75325 -2.570313,-1.16601 -0.842427,-0.41249 -1.670562,-0.84912 -2.484375,-1.30859 h -0.002 c -0.814293,-0.45978 -1.612591,-0.94417 -2.396484,-1.44922 -1.56776,-1.01008 -3.074246,-2.1086 -4.509766,-3.28907 -0.71776,-0.59022 -1.417556,-1.19991 -2.099609,-1.83007 -2.7278,-2.52026 -5.164067,-5.35353 -7.25,-8.44141 v -0.004 c -0.521214,-0.77164 -1.021314,-1.55867 -1.498047,-2.36132 v -0.002 c -1.90764,-3.21204 -3.451665,-6.6671 -4.576172,-10.30469 h -0.08203 z m 84.865234,14.08203 c -8.37044,11.47892 -21.70055,19.09984 -36.83789,19.72461 -0.619146,14.94625 -8.04987,28.12104 -19.279297,36.50974 -0.748626,0.5593 -1.513428,1.0974 -2.294921,1.6133 H 125.02539 Z M 0.0234375,1000.1285 v 13.6797 H 13.716797 c -0.67912,-0.4488 -1.347286,-0.915 -2.001953,-1.3965 -4.5827202,-3.3702 -8.5505533,-7.5283 -11.6914065,-12.2832 z"
       style="display:inline;opacity:0.75;fill:#ffffff;fill-opacity:1;fill-rule:nonzero;stroke:none;stroke-width:1.33333349" /></g><g
     transform="translate(0,-13.808223)"
     style="display:none"
     inkscape:label="text-title"
     id="layer5"
     inkscape:groupmode="layer"
     sodipodi:insensitive="true"><rect
       style="display:inline;opacity:0.5;fill:#000000;fill-opacity:1;stroke:none;stroke-width:1.273;stroke-miterlimit:4;stroke-dasharray:7.638, 7.638;stroke-dashoffset:0;stroke-opacity:1;filter:url(#filter1270)"
       id="rect1267"
       width="725"
       height="150"
       x="-925"
       y="1063.8082"
       transform="matrix(-1,0,0,1,1.1958182e-5,-1.3e-5)" /><g
       style="display:inline;opacity:1;fill:#ffffff;filter:url(#filter1327-7)"
       id="g1279"
       transform="translate(1.1958182e-5,-1.3e-5)"><text
         id="text4609"
         y="1132.9016"
         x="562.33997"
         style="font-style:normal;font-variant:normal;font-weight:bold;font-stretch:normal;font-size:53.33330154px;line-height:125%;font-family:Raleway;-inkscape-font-specification:'Raleway, Bold';font-variant-ligatures:normal;font-variant-caps:normal;font-variant-numeric:normal;font-feature-settings:normal;text-align:center;letter-spacing:0px;word-spacing:0px;writing-mode:lr-tb;text-anchor:middle;fill:#ffffff;fill-opacity:1;stroke:none;stroke-width:1px;stroke-linecap:butt;stroke-linejoin:miter;stroke-opacity:1"
         xml:space="preserve"><tspan
           y="1132.9016"
           x="562.33997"
           id="tspan1262"
           sodipodi:role="line">epsi-rns.gitlab.io</tspan></text>
<text
         xml:space="preserve"
         style="font-style:normal;font-variant:normal;font-weight:bold;font-stretch:normal;font-size:37.33330154px;line-height:125%;font-family:Raleway;-inkscape-font-specification:'Raleway, Bold';font-variant-ligatures:normal;font-variant-caps:normal;font-variant-numeric:normal;font-feature-settings:normal;text-align:center;letter-spacing:0px;word-spacing:0px;writing-mode:lr-tb;text-anchor:middle;fill:#ffffff;fill-opacity:1;stroke:none;stroke-width:1px;stroke-linecap:butt;stroke-linejoin:miter;stroke-opacity:1"
         x="562.33997"
         y="1183.3602"
         id="text4615"><tspan
           y="1183.3602"
           x="562.33997"
           id="tspan2751"
           sodipodi:role="line">Web Development Blog</tspan></text>
<rect
         style="opacity:1;fill:#ffffff;fill-opacity:1;stroke:none;stroke-width:1.273;stroke-miterlimit:4;stroke-dasharray:7.638, 7.638;stroke-dashoffset:0;stroke-opacity:1"
         id="rect5866"
         width="683.30499"
         height="3"
         x="221.327"
         y="1140.8082" /></g></g><g
     inkscape:groupmode="layer"
     id="g1276"
     inkscape:label="text-title-alternate"
     style="display:inline"
     transform="translate(0,-13.808223)"
     sodipodi:insensitive="true"><rect
       transform="matrix(-1,0,0,1,1.1958182e-5,-1.3e-5)"
       y="1063.8082"
       x="-925"
       height="150"
       width="725"
       id="rect1262"
       style="display:inline;opacity:0.5;fill:#000000;fill-opacity:1;stroke:none;stroke-width:1.273;stroke-miterlimit:4;stroke-dasharray:7.638, 7.638;stroke-dashoffset:0;stroke-opacity:1;filter:url(#filter1270)" /><g
       transform="translate(1.1958182e-5,-1.3e-5)"
       id="g1274"
       style="display:inline;opacity:1;fill:#ffffff;filter:url(#filter1327-7)"><text
         xml:space="preserve"
         style="font-style:normal;font-variant:normal;font-weight:bold;font-stretch:normal;font-size:53.33330154px;line-height:125%;font-family:Raleway;-inkscape-font-specification:'Raleway, Bold';font-variant-ligatures:normal;font-variant-caps:normal;font-variant-numeric:normal;font-feature-settings:normal;text-align:center;letter-spacing:0px;word-spacing:0px;writing-mode:lr-tb;text-anchor:middle;fill:#ffffff;fill-opacity:1;stroke:none;stroke-width:1px;stroke-linecap:butt;stroke-linejoin:miter;stroke-opacity:1"
         x="562.33997"
         y="1126.9149"
         id="text1266"><tspan
           y="1126.9149"
           x="562.33997"
           id="tspan1278"
           sodipodi:role="line">epsi-rns.github.io</tspan></text>
<text
         id="text1270"
         y="1183.3602"
         x="562.33997"
         style="font-style:normal;font-variant:normal;font-weight:bold;font-stretch:normal;font-size:37.33330154px;line-height:125%;font-family:Raleway;-inkscape-font-specification:'Raleway, Bold';font-variant-ligatures:normal;font-variant-caps:normal;font-variant-numeric:normal;font-feature-settings:normal;text-align:center;letter-spacing:0px;word-spacing:0px;writing-mode:lr-tb;text-anchor:middle;fill:#ffffff;fill-opacity:1;stroke:none;stroke-width:1px;stroke-linecap:butt;stroke-linejoin:miter;stroke-opacity:1"
         xml:space="preserve"><tspan
           y="1183.3602"
           x="562.33997"
           id="tspan1280"
           sodipodi:role="line">Linux/ BSD Desktop Customization</tspan></text>
<rect
         y="1140.8082"
         x="221.327"
         height="3"
         width="683.30499"
         id="rect1272"
         style="opacity:1;fill:#ffffff;fill-opacity:1;stroke:none;stroke-width:1.273;stroke-miterlimit:4;stroke-dasharray:7.638, 7.638;stroke-dashoffset:0;stroke-opacity:1" /></g></g><g
     sodipodi:insensitive="true"
     transform="translate(0,-13.808223)"
     style="display:inline"
     inkscape:label="text-dirgahayu"
     id="layer8"
     inkscape:groupmode="layer"><g
       transform="translate(-400.00001,79.903976)"
       id="g2825"
       style="display:inline"><text
         xml:space="preserve"
         style="font-style:normal;font-variant:normal;font-weight:normal;font-stretch:normal;font-size:96px;line-height:125%;font-family:Lobster;-inkscape-font-specification:'Lobster, Normal';font-variant-ligatures:normal;font-variant-caps:normal;font-variant-numeric:normal;font-variant-east-asian:normal;text-align:center;letter-spacing:0px;word-spacing:0px;writing-mode:lr-tb;text-anchor:middle;fill:#000000;fill-opacity:1;stroke:none;stroke-width:1px;stroke-linecap:butt;stroke-linejoin:miter;stroke-opacity:1"
         x="806.54358"
         y="543.80823"
         id="text1218"><tspan
           y="543.80823"
           x="806.54358"
           id="tspan212"
           sodipodi:role="line">Maaf</tspan></text>
<text
         id="text1222"
         y="663.32825"
         x="806.54358"
         style="font-style:normal;font-variant:normal;font-weight:normal;font-stretch:normal;font-size:96px;line-height:125%;font-family:Lobster;-inkscape-font-specification:'Lobster, Normal';font-variant-ligatures:normal;font-variant-caps:normal;font-variant-numeric:normal;font-variant-east-asian:normal;text-align:center;letter-spacing:0px;word-spacing:0px;writing-mode:lr-tb;text-anchor:middle;fill:#000000;fill-opacity:1;stroke:none;stroke-width:1px;stroke-linecap:butt;stroke-linejoin:miter;stroke-opacity:1"
         xml:space="preserve"><tspan
           y="663.32825"
           x="806.54358"
           id="tspan214"
           sodipodi:role="line">Merepotkan</tspan></text>
<text
         xml:space="preserve"
         style="font-style:normal;font-variant:normal;font-weight:normal;font-stretch:normal;font-size:96px;line-height:125%;font-family:Lobster;-inkscape-font-specification:'Lobster, Normal';font-variant-ligatures:normal;font-variant-caps:normal;font-variant-numeric:normal;font-variant-east-asian:normal;text-align:center;letter-spacing:0px;word-spacing:0px;writing-mode:lr-tb;text-anchor:middle;fill:#000000;fill-opacity:1;stroke:none;stroke-width:1px;stroke-linecap:butt;stroke-linejoin:miter;stroke-opacity:1"
         x="806.54358"
         y="783.32825"
         id="text5730"><tspan
           y="783.32825"
           x="806.54358"
           id="tspan216"
           sodipodi:role="line">...</tspan></text>
</g></g></svg>